<?xml version="1.0" encoding="UTF-8" standalone="no"?>
<!DOCTYPE svg PUBLIC "-//W3C//DTD SVG 1.1//EN"
 "http://www.w3.org/Graphics/SVG/1.1/DTD/svg11.dtd">
<!-- Generated by graphviz version 2.43.0 (0)
 -->
<!-- Title: Grouped Workers Pages: 1 -->
<svg width="965pt" height="830pt"
 viewBox="0.00 0.00 965.00 830.00" xmlns="http://www.w3.org/2000/svg" xmlns:xlink="http://www.w3.org/1999/xlink">
<g id="graph0" class="graph" transform="scale(1 1) rotate(0) translate(144 686)">
<title>Grouped Workers</title>
<polygon fill="white" stroke="transparent" points="-144,144 -144,-686 821,-686 821,144 -144,144"/>
<text text-anchor="middle" x="338.5" y="-7" font-family="Sans-Serif" font-size="15.00" fill="#2d3436">Grouped Workers</text>
<!-- cf5d6951e5e74bb6b0b0fd2f6aafe7e5 -->
<g id="node1" class="node">
<title>cf5d6951e5e74bb6b0b0fd2f6aafe7e5</title>
<image xlink:href="/Users/anders/Projects/weaving/venv/lib/python3.7/site-packages/resources/aws/network/elastic-load-balancing.png" width="101px" height="101px" preserveAspectRatio="xMinYMin meet" x="288" y="-524"/>
<text text-anchor="middle" x="338.5" y="-407.6" font-family="Sans-Serif" font-size="13.00" fill="#2d3436">lb</text>
</g>
<!-- 25becefad8a848dbbf3502b4dd0e59f7 -->
<g id="node2" class="node">
<title>25becefad8a848dbbf3502b4dd0e59f7</title>
<image xlink:href="/Users/anders/Projects/weaving/venv/lib/python3.7/site-packages/resources/aws/compute/ec2.png" width="101px" height="101px" preserveAspectRatio="xMinYMin meet" x="0" y="-333"/>
<text text-anchor="middle" x="50.5" y="-216.6" font-family="Sans-Serif" font-size="13.00" fill="#2d3436">worker1</text>
</g>
<!-- cf5d6951e5e74bb6b0b0fd2f6aafe7e5&#45;&gt;25becefad8a848dbbf3502b4dd0e59f7 -->
<g id="edge1" class="edge">
<title>cf5d6951e5e74bb6b0b0fd2f6aafe7e5&#45;&gt;25becefad8a848dbbf3502b4dd0e59f7</title>
<path fill="none" stroke="#7b8894" d="M287.67,-496C205,-496 50.5,-496 50.5,-496 50.5,-496 50.5,-361.23 50.5,-361.23"/>
<polygon fill="#7b8894" stroke="#7b8894" points="54,-361.23 50.5,-351.23 47,-361.23 54,-361.23"/>
</g>
<!-- 70309a7837f045e88560fc96a752564b -->
<g id="node3" class="node">
<title>70309a7837f045e88560fc96a752564b</title>
<image xlink:href="/Users/anders/Projects/weaving/venv/lib/python3.7/site-packages/resources/aws/compute/ec2.png" width="101px" height="101px" preserveAspectRatio="xMinYMin meet" x="144" y="-333"/>
<text text-anchor="middle" x="194.5" y="-216.6" font-family="Sans-Serif" font-size="13.00" fill="#2d3436">worker2</text>
</g>
<!-- cf5d6951e5e74bb6b0b0fd2f6aafe7e5&#45;&gt;70309a7837f045e88560fc96a752564b -->
<g id="edge2" class="edge">
<title>cf5d6951e5e74bb6b0b0fd2f6aafe7e5&#45;&gt;70309a7837f045e88560fc96a752564b</title>
<path fill="none" stroke="#7b8894" d="M287.73,-450C246.27,-450 194.5,-450 194.5,-450 194.5,-450 194.5,-361.11 194.5,-361.11"/>
<polygon fill="#7b8894" stroke="#7b8894" points="198,-361.11 194.5,-351.11 191,-361.11 198,-361.11"/>
</g>
<!-- 09b7a35e35ea4d12bee52fabebc8f0ea -->
<g id="node4" class="node">
<title>09b7a35e35ea4d12bee52fabebc8f0ea</title>
<image xlink:href="/Users/anders/Projects/weaving/venv/lib/python3.7/site-packages/resources/aws/compute/ec2.png" width="101px" height="101px" preserveAspectRatio="xMinYMin meet" x="288" y="-333"/>
<text text-anchor="middle" x="338.5" y="-216.6" font-family="Sans-Serif" font-size="13.00" fill="#2d3436">worker3</text>
</g>
<!-- cf5d6951e5e74bb6b0b0fd2f6aafe7e5&#45;&gt;09b7a35e35ea4d12bee52fabebc8f0ea -->
<g id="edge3" class="edge">
<title>cf5d6951e5e74bb6b0b0fd2f6aafe7e5&#45;&gt;09b7a35e35ea4d12bee52fabebc8f0ea</title>
<path fill="none" stroke="#7b8894" d="M338.5,-404.81C338.5,-404.81 338.5,-361.22 338.5,-361.22"/>
<polygon fill="#7b8894" stroke="#7b8894" points="342,-361.22 338.5,-351.22 335,-361.22 342,-361.22"/>
</g>
<!-- b006990ea3e344ae848e157afa8ba71d -->
<g id="node5" class="node">
<title>b006990ea3e344ae848e157afa8ba71d</title>
<image xlink:href="/Users/anders/Projects/weaving/venv/lib/python3.7/site-packages/resources/aws/compute/ec2.png" width="101px" height="101px" preserveAspectRatio="xMinYMin meet" x="432" y="-333"/>
<text text-anchor="middle" x="482.5" y="-216.6" font-family="Sans-Serif" font-size="13.00" fill="#2d3436">worker4</text>
</g>
<!-- cf5d6951e5e74bb6b0b0fd2f6aafe7e5&#45;&gt;b006990ea3e344ae848e157afa8ba71d -->
<g id="edge4" class="edge">
<title>cf5d6951e5e74bb6b0b0fd2f6aafe7e5&#45;&gt;b006990ea3e344ae848e157afa8ba71d</title>
<path fill="none" stroke="#7b8894" d="M389.27,-450C430.73,-450 482.5,-450 482.5,-450 482.5,-450 482.5,-361.11 482.5,-361.11"/>
<polygon fill="#7b8894" stroke="#7b8894" points="486,-361.11 482.5,-351.11 479,-361.11 486,-361.11"/>
</g>
<!-- 67100184f32a466fbf944462fb7a90d3 -->
<g id="node6" class="node">
<title>67100184f32a466fbf944462fb7a90d3</title>
<image xlink:href="/Users/anders/Projects/weaving/venv/lib/python3.7/site-packages/resources/aws/compute/ec2.png" width="101px" height="101px" preserveAspectRatio="xMinYMin meet" x="576" y="-333"/>
<text text-anchor="middle" x="626.5" y="-216.6" font-family="Sans-Serif" font-size="13.00" fill="#2d3436">worker5</text>
</g>
<!-- cf5d6951e5e74bb6b0b0fd2f6aafe7e5&#45;&gt;67100184f32a466fbf944462fb7a90d3 -->
<g id="edge5" class="edge">
<title>cf5d6951e5e74bb6b0b0fd2f6aafe7e5&#45;&gt;67100184f32a466fbf944462fb7a90d3</title>
<path fill="none" stroke="#7b8894" d="M389.33,-496C472,-496 626.5,-496 626.5,-496 626.5,-496 626.5,-361.23 626.5,-361.23"/>
<polygon fill="#7b8894" stroke="#7b8894" points="630,-361.23 626.5,-351.23 623,-361.23 630,-361.23"/>
</g>
<!-- dbe694a7d74944eca469f046a281f526 -->
<g id="node7" class="node">
<title>dbe694a7d74944eca469f046a281f526</title>
<image xlink:href="/Users/anders/Projects/weaving/venv/lib/python3.7/site-packages/resources/aws/database/rds.png" width="101px" height="101px" preserveAspectRatio="xMinYMin meet" x="288" y="-142"/>
<text text-anchor="middle" x="338.5" y="-25.6" font-family="Sans-Serif" font-size="13.00" fill="#2d3436">events</text>
</g>
<!-- 25becefad8a848dbbf3502b4dd0e59f7&#45;&gt;dbe694a7d74944eca469f046a281f526 -->
<g id="edge6" class="edge">
<title>25becefad8a848dbbf3502b4dd0e59f7&#45;&gt;dbe694a7d74944eca469f046a281f526</title>
<path fill="none" stroke="#7b8894" d="M50.5,-213.75C50.5,-151.01 50.5,-68 50.5,-68 50.5,-68 277.67,-68 277.67,-68"/>
<polygon fill="#7b8894" stroke="#7b8894" points="277.67,-71.5 287.67,-68 277.67,-64.5 277.67,-71.5"/>
</g>
<!-- 70309a7837f045e88560fc96a752564b&#45;&gt;dbe694a7d74944eca469f046a281f526 -->
<g id="edge7" class="edge">
<title>70309a7837f045e88560fc96a752564b&#45;&gt;dbe694a7d74944eca469f046a281f526</title>
<path fill="none" stroke="#7b8894" d="M194.5,-213.96C194.5,-167.31 194.5,-114 194.5,-114 194.5,-114 277.73,-114 277.73,-114"/>
<polygon fill="#7b8894" stroke="#7b8894" points="277.73,-117.5 287.73,-114 277.73,-110.5 277.73,-117.5"/>
</g>
<!-- 09b7a35e35ea4d12bee52fabebc8f0ea&#45;&gt;dbe694a7d74944eca469f046a281f526 -->
<g id="edge8" class="edge">
<title>09b7a35e35ea4d12bee52fabebc8f0ea&#45;&gt;dbe694a7d74944eca469f046a281f526</title>
<path fill="none" stroke="#7b8894" d="M338.5,-213.81C338.5,-213.81 338.5,-170.22 338.5,-170.22"/>
<polygon fill="#7b8894" stroke="#7b8894" points="342,-170.22 338.5,-160.22 335,-170.22 342,-170.22"/>
</g>
<!-- b006990ea3e344ae848e157afa8ba71d&#45;&gt;dbe694a7d74944eca469f046a281f526 -->
<g id="edge9" class="edge">
<title>b006990ea3e344ae848e157afa8ba71d&#45;&gt;dbe694a7d74944eca469f046a281f526</title>
<path fill="none" stroke="#7b8894" d="M482.5,-213.96C482.5,-167.31 482.5,-114 482.5,-114 482.5,-114 399.27,-114 399.27,-114"/>
<polygon fill="#7b8894" stroke="#7b8894" points="399.27,-110.5 389.27,-114 399.27,-117.5 399.27,-110.5"/>
</g>
<!-- 67100184f32a466fbf944462fb7a90d3&#45;&gt;dbe694a7d74944eca469f046a281f526 -->
<g id="edge10" class="edge">
<title>67100184f32a466fbf944462fb7a90d3&#45;&gt;dbe694a7d74944eca469f046a281f526</title>
<path fill="none" stroke="#7b8894" d="M626.5,-213.75C626.5,-151.01 626.5,-68 626.5,-68 626.5,-68 399.33,-68 399.33,-68"/>
<polygon fill="#7b8894" stroke="#7b8894" points="399.33,-64.5 389.33,-68 399.33,-71.5 399.33,-64.5"/>
</g>
</g>
</svg>
